<svg width="19" height="19" viewBox="0 0 19 19" fill="none" xmlns="http://www.w3.org/2000/svg">
<path d="M2.3099 0.00683594H16.8932C17.4458 0.00683594 17.9757 0.21755 18.3664 0.592622C18.7571 0.967695 18.9766 1.4764 18.9766 2.00684V16.0068C18.9766 16.5373 18.7571 17.046 18.3664 17.421C17.9757 17.7961 17.4458 18.0068 16.8932 18.0068H2.3099C1.75736 18.0068 1.22746 17.7961 0.836757 17.421C0.446056 17.046 0.226563 16.5373 0.226562 16.0068V2.00684C0.226562 1.4764 0.446056 0.967695 0.836757 0.592622C1.22746 0.21755 1.75736 0.00683594 2.3099 0.00683594ZM15.8516 2.00684H13.2474C12.2805 2.00684 11.3531 2.37559 10.6694 3.03196C9.98568 3.68834 9.60156 4.57858 9.60156 5.50684V8.00684H7.51823V11.0068H9.60156V18.0068H12.7266V11.0068H15.8516V8.00684H12.7266V6.00684C12.7266 5.74162 12.8363 5.48727 13.0317 5.29973C13.227 5.11219 13.492 5.00684 13.7682 5.00684H15.8516V2.00684Z" fill="white"/>
</svg>
