<svg width="22" height="21" viewBox="0 0 22 21" fill="none" xmlns="http://www.w3.org/2000/svg">
<path d="M6.22656 0.00683594H14.9766C18.3099 0.00683594 21.0182 2.60684 21.0182 5.80684V14.2068C21.0182 15.7451 20.3817 17.2203 19.2487 18.3081C18.1156 19.3958 16.5789 20.0068 14.9766 20.0068H6.22656C2.89322 20.0068 0.184891 17.4068 0.184891 14.2068V5.80684C0.184891 4.26858 0.821422 2.79333 1.95445 1.70562C3.08749 0.617906 4.62421 0.00683594 6.22656 0.00683594ZM6.01822 2.00684C5.02366 2.00684 4.06984 2.38612 3.36657 3.06125C2.66331 3.73638 2.26822 4.65206 2.26822 5.60684V14.4068C2.26822 16.3968 3.94531 18.0068 6.01822 18.0068H15.1849C16.1795 18.0068 17.1333 17.6276 17.8365 16.9524C18.5398 16.2773 18.9349 15.3616 18.9349 14.4068V5.60684C18.9349 3.61684 17.2578 2.00684 15.1849 2.00684H6.01822ZM16.0703 3.50684C16.4156 3.50684 16.7468 3.63853 16.991 3.87295C17.2352 4.10737 17.3724 4.42532 17.3724 4.75684C17.3724 5.08836 17.2352 5.4063 16.991 5.64072C16.7468 5.87514 16.4156 6.00684 16.0703 6.00684C15.725 6.00684 15.3938 5.87514 15.1496 5.64072C14.9054 5.4063 14.7682 5.08836 14.7682 4.75684C14.7682 4.42532 14.9054 4.10737 15.1496 3.87295C15.3938 3.63853 15.725 3.50684 16.0703 3.50684ZM10.6016 5.00684C11.9829 5.00684 13.3077 5.53362 14.2844 6.4713C15.2612 7.40898 15.8099 8.68075 15.8099 10.0068C15.8099 11.3329 15.2612 12.6047 14.2844 13.5424C13.3077 14.4801 11.9829 15.0068 10.6016 15.0068C9.22022 15.0068 7.89546 14.4801 6.91871 13.5424C5.94196 12.6047 5.39322 11.3329 5.39322 10.0068C5.39322 8.68075 5.94196 7.40898 6.91871 6.4713C7.89546 5.53362 9.22022 5.00684 10.6016 5.00684ZM10.6016 7.00684C9.77276 7.00684 8.9779 7.32291 8.39185 7.88552C7.8058 8.44812 7.47656 9.21119 7.47656 10.0068C7.47656 10.8025 7.8058 11.5655 8.39185 12.1282C8.9779 12.6908 9.77276 13.0068 10.6016 13.0068C11.4304 13.0068 12.2252 12.6908 12.8113 12.1282C13.3973 11.5655 13.7266 10.8025 13.7266 10.0068C13.7266 9.21119 13.3973 8.44812 12.8113 7.88552C12.2252 7.32291 11.4304 7.00684 10.6016 7.00684Z" fill="white"/>
</svg>
