<svg width="23" height="18" viewBox="0 0 23 18" fill="none" xmlns="http://www.w3.org/2000/svg">
<path d="M22.4974 2.00684C21.6953 2.35684 20.8307 2.58684 19.9349 2.69684C20.8516 2.16684 21.5599 1.32684 21.8932 0.316836C21.0287 0.816836 20.0703 1.16684 19.0599 1.36684C18.237 0.506836 17.0807 0.00683594 15.7682 0.00683594C13.3203 0.00683594 11.3203 1.92684 11.3203 4.29684C11.3203 4.63684 11.362 4.96684 11.4349 5.27684C7.72657 5.09684 4.42448 3.38684 2.22657 0.796836C1.84115 1.42684 1.6224 2.16684 1.6224 2.94684C1.6224 4.43684 2.40365 5.75684 3.61198 6.50684C2.8724 6.50684 2.1849 6.30684 1.58073 6.00684V6.03684C1.58073 8.11684 3.1224 9.85684 5.16407 10.2468C4.50857 10.419 3.82042 10.443 3.15365 10.3168C3.43657 11.1693 3.99067 11.9152 4.73804 12.4498C5.48542 12.9843 6.38849 13.2805 7.32032 13.2968C5.74077 14.4973 3.78281 15.1462 1.76823 15.1368C1.41407 15.1368 1.0599 15.1168 0.705734 15.0768C2.6849 16.2968 5.03907 17.0068 7.5599 17.0068C15.7682 17.0068 20.2787 10.4668 20.2787 4.79684C20.2787 4.60684 20.2786 4.42684 20.2682 4.23684C21.1432 3.63684 21.8932 2.87684 22.4974 2.00684Z" fill="white"/>
</svg>
